<?xml version="1.0" encoding="UTF-8"?>
<svg width="253px" height="106px" viewBox="0 0 253 106" version="1.1" xmlns="http://www.w3.org/2000/svg" xmlns:xlink="http://www.w3.org/1999/xlink">
    <!-- Generator: Sketch 42 (36781) - http://www.bohemiancoding.com/sketch -->
    <title>PlanckUnits_1</title>
    <desc>Created with Sketch.</desc>
    <defs></defs>
    <g id="Page-1" stroke="none" stroke-width="1" fill="none" fill-rule="evenodd">
        <g id="PlanckUnits_1" fill="#000000">
            <path d="M95.4497375,21.1511201 L95.4497375,31.5002412 L102.634796,31.5002412 C104.436563,31.4709442 105.79153,30.9143091 106.699738,29.8303193 C107.564,28.7756265 107.996124,27.6037633 107.996124,26.3146943 C107.996124,25.245353 107.820345,24.3444831 107.468781,23.6120576 C107.102568,22.9528746 106.589878,22.4328603 105.930695,22.051999 C104.934596,21.422113 103.777381,21.1218231 102.459015,21.1511201 L95.4497375,21.1511201 Z M91,48.5949678 L91,16.5588349 L102.601562,16.5588349 C103.861334,16.5588349 105.077143,16.6760213 106.249023,16.9103974 C107.420904,17.2180162 108.607416,17.8478927 109.808594,18.8000459 C110.819341,19.5178229 111.639645,20.5432033 112.269531,21.8762178 C112.928714,23.1652867 113.258301,24.688709 113.258301,26.4465303 C113.258301,28.819589 112.423348,30.9802119 110.753418,32.9284638 C109.039542,34.9792553 106.534684,36.0339323 103.23877,36.0925263 L95.855957,36.0925263 L95.855957,48.5949678 L91,48.5949678 Z M116.851105,43.0578584 C116.851105,45.0647043 117.422388,46.4929127 118.564972,47.3425263 C119.648962,48.1774915 121.025901,48.5949678 122.695831,48.5949678 L124.739288,48.5949678 L124.739288,44.2663545 L123.157257,44.2663545 C122.014673,44.2663545 121.44339,43.7463401 121.44339,42.7062959 L121.44339,16.5588349 L116.851105,16.5588349 L116.851105,43.0578584 Z M140.427765,48.5949678 L140.427765,46.5734834 L140.339874,46.5734834 C139.915067,47.3498544 139.255894,47.9211378 138.362335,48.2873506 C137.483425,48.6682118 136.267616,48.8586396 134.714874,48.8586396 C132.166033,48.8293426 130.203162,48.1555212 128.826202,46.8371553 C127.376,45.5480863 126.650909,43.9001536 126.650909,41.8933076 C126.650909,39.9743527 127.280786,38.3850131 128.540558,37.1252412 C129.80033,35.8361722 131.646014,35.1769991 134.077667,35.1477021 L140.427765,35.1477021 L140.427765,32.7526826 C140.457062,30.7458366 138.897019,29.7717253 135.747589,29.8303193 C134.605005,29.8303193 133.704135,29.9475056 133.044952,30.1818818 C132.356472,30.4602035 131.814486,30.9289488 131.418976,31.5881318 L127.81546,28.8415498 C129.558633,26.5563821 132.129408,25.443112 135.527863,25.501706 C138.398971,25.472409 140.691428,26.0143958 142.405304,27.1276826 C144.11918,28.2702664 144.990753,30.2331374 145.02005,33.0163545 L145.02005,48.5949678 L140.427765,48.5949678 Z M140.427765,40.5749482 L140.427765,38.926999 L134.934601,38.926999 C132.268572,38.985593 130.950226,39.9011112 130.979523,41.673581 C130.979523,42.4499521 131.323758,43.1091252 132.012238,43.6511201 C132.671421,44.251709 133.762718,44.551999 135.286163,44.551999 C137.205118,44.581296 138.560085,44.3542475 139.351105,43.8708467 C140.068882,43.3874458 140.427765,42.288824 140.427765,40.5749482 Z M150.952667,48.5949678 L155.544952,48.5949678 L155.544952,35.0158662 C155.544952,33.4191785 155.977077,32.2033704 156.841339,31.3684053 C157.690953,30.5187916 158.774926,30.0939912 160.093292,30.0939912 C161.411658,30.0939912 162.488308,30.5187916 163.323273,31.3684053 C164.172886,32.2033704 164.597687,33.4191785 164.597687,35.0158662 L164.597687,48.5949678 L169.189972,48.5949678 L169.189972,33.4338349 C169.116729,30.8264 168.303749,28.8488807 166.751007,27.5012178 C165.183616,26.1682033 163.455118,25.501706 161.56546,25.501706 C159.119159,25.501706 157.14164,26.4025759 155.632843,28.2043428 L155.544952,28.2043428 L155.544952,25.7873506 L150.952667,25.7873506 L150.952667,48.5949678 Z M188.525909,41.8933076 C187.368677,43.4460497 185.823282,44.2370574 183.889679,44.2663545 C179.993175,44.339597 178.015656,41.9885463 177.957062,37.2131318 C178.015656,32.4084203 179.993175,30.0353971 183.889679,30.0939912 C185.823282,30.1525852 187.368677,30.9509171 188.525909,32.4890107 L191.909698,29.4787568 C190.9136,28.2775789 189.741736,27.3181159 188.394073,26.6003388 C187.04641,25.8972103 185.486368,25.5310031 183.713898,25.501706 C181.018572,25.472409 178.652873,26.3732789 176.61673,28.2043428 C174.507344,30.0647036 173.423371,33.0676033 173.364777,37.2131318 C173.423371,41.3147148 174.507344,44.2809938 176.61673,46.1120576 C178.652873,47.9431214 181.018572,48.8586396 183.713898,48.8586396 C185.486368,48.8293426 187.04641,48.4411629 188.394073,47.6940888 C189.741736,46.9763118 190.9136,46.0461453 191.909698,44.9035615 L188.525909,41.8933076 Z M195.095734,48.5949678 L199.688019,48.5949678 L199.688019,42.0251435 L203.291534,37.9382295 L209.355988,48.5949678 L215.112823,48.5949678 L206.169952,34.6862763 L214.036163,25.7873506 L208.542999,25.7873506 L199.775909,36.4880342 L199.688019,36.4880342 L199.688019,16.5588349 L195.095734,16.5588349 L195.095734,48.5949678 Z M215.486359,54.2199678 L237.986359,54.2199678 L237.986359,51.9787568 L215.486359,51.9787568 L215.486359,54.2199678 Z M91.0005188,74.7404756 C91.0298158,78.109633 92.1430859,80.7829461 94.3403625,82.7604951 C96.4936936,84.7966381 99.1743309,85.8293426 102.382355,85.8586396 C105.648973,85.8293426 108.351582,84.7966381 110.490265,82.7604951 C112.614299,80.7829461 113.705597,78.109633 113.764191,74.7404756 L113.764191,53.5588349 L108.908234,53.5588349 L108.908234,74.2131318 C108.878937,76.3957599 108.263708,78.0583409 107.062531,79.2009248 C105.832056,80.4021027 104.272013,81.0026826 102.382355,81.0026826 C100.492697,81.0026826 98.9473021,80.4021027 97.7461243,79.2009248 C96.5156494,78.0583409 95.8857729,76.3957599 95.8564758,74.2131318 L95.8564758,53.5588349 L91.0005188,53.5588349 L91.0005188,74.7404756 Z M119.521027,85.5949678 L124.113312,85.5949678 L124.113312,72.0158662 C124.113312,70.4191785 124.545436,69.2033704 125.409698,68.3684053 C126.259312,67.5187916 127.343286,67.0939912 128.661652,67.0939912 C129.980018,67.0939912 131.056667,67.5187916 131.891632,68.3684053 C132.741246,69.2033704 133.166046,70.4191785 133.166046,72.0158662 L133.166046,85.5949678 L137.758331,85.5949678 L137.758331,70.4338349 C137.685089,67.8264 136.872109,65.8488807 135.319366,64.5012178 C133.751976,63.1682033 132.023477,62.501706 130.13382,62.501706 C127.687518,62.501706 125.709999,63.4025759 124.201202,65.2043428 L124.113312,65.2043428 L124.113312,62.7873506 L119.521027,62.7873506 L119.521027,85.5949678 Z M143.822784,85.5949678 L148.41507,85.5949678 L148.41507,62.7873506 L143.822784,62.7873506 L143.822784,85.5949678 Z M143.822784,58.1511201 L148.41507,58.1511201 L148.41507,53.5588349 L143.822784,53.5588349 L143.822784,58.1511201 Z M154.743195,62.7873506 L152.458038,62.7873506 L152.458038,66.2810029 L154.743195,66.2810029 L154.743195,79.9699678 C154.743195,81.7717346 155.270533,83.1486739 156.325226,84.1008271 C157.350622,85.0969259 158.668968,85.5949678 160.280304,85.5949678 L162.675323,85.5949678 L162.675323,81.2663545 L160.961456,81.2663545 C159.848169,81.2956515 159.306183,80.7316923 159.33548,79.5744599 L159.33548,66.2810029 L162.675323,66.2810029 L162.675323,62.7873506 L159.33548,62.7873506 L159.33548,55.8439912 L154.743195,55.8439912 L154.743195,62.7873506 Z M167.663116,78.6296357 L164.455109,81.7717256 C167.428756,84.4963486 170.775891,85.8586396 174.496613,85.8586396 C177.235884,85.8293426 179.484397,85.1994661 181.242218,83.9689912 C183.014688,82.7678133 183.915558,81.0612874 183.944855,78.8493623 C183.944855,76.9597044 183.454137,75.3996614 182.472687,74.1691865 C181.417994,72.9094146 179.704144,72.1916483 177.331085,72.0158662 L173.551788,71.7302217 C172.438502,71.6130336 171.662142,71.3420402 171.222687,70.9172334 C170.739286,70.5363721 170.512237,70.0895992 170.541534,69.5769013 C170.541534,68.7712333 170.841824,68.1120602 171.442413,67.5993623 C172.013705,67.0866644 173.017113,66.8303193 174.452667,66.8303193 C175.712439,66.8303193 176.825709,67.013423 177.792511,67.3796357 C178.773961,67.789794 179.704128,68.3098084 180.583038,68.9396943 L183.417511,65.6218232 C182.304224,64.6550215 181.044471,63.8859862 179.638214,63.3146943 C178.905789,63.0510211 178.122105,62.845945 177.28714,62.6994599 C176.452175,62.5676233 175.50736,62.501706 174.452667,62.501706 C172.021014,62.501706 170.014199,63.0876377 168.432159,64.2595185 C166.806175,65.4313994 165.978546,67.1891943 165.949249,69.532956 C165.978546,71.481208 166.608423,72.9973061 167.838898,74.0812959 C169.040076,75.1945827 170.600119,75.8391075 172.519073,76.0148896 L176.562042,76.3664521 C177.411656,76.3957491 178.092801,76.5788528 178.605499,76.9157685 C179.103549,77.2380358 179.35257,77.8093191 179.35257,78.6296357 C179.35257,79.5524919 178.935093,80.2702582 178.100128,80.782956 C177.265163,81.2956539 176.188514,81.551999 174.870148,81.551999 C171.925797,81.551999 169.523477,80.5778876 167.663116,78.6296357 Z M185.614777,91.2199678 L208.114777,91.2199678 L208.114777,88.9787568 L185.614777,88.9787568 L185.614777,91.2199678 Z" id="Planck_-Units_-Copy-2"></path>
            <path d="M79.3682706,33.5167571 L79.3886454,33.5167571 L79.3835593,33.5255841 L79.4159474,33.5442834 L79.4159474,71.0727856 L46.9477435,89.8183118 L46.9261601,89.85577 L46.9153523,89.8370129 L14.4146748,71.0727856 L14.4146748,33.5442834 L46.9153111,14.7800322 L79.3682706,33.5167571 Z M79.3682706,33.5167571 L14.4636748,33.5167571 L46.9153523,89.8370129 L46.9477435,89.8183118 L79.3835593,33.5255841 L79.3682706,33.5167571 Z M46.9261601,33.5167571 L63.1497666,61.673011 L30.7025536,61.673011 L46.9261601,33.5167571 Z" id="symbol-copy-5" transform="translate(46.915311, 52.317901) rotate(-30.000000) translate(-46.915311, -52.317901) "></path>
        </g>
    </g>
</svg>