<?xml version="1.0" encoding="UTF-8"?>
<svg width="506px" height="212px" viewBox="0 0 506 212" version="1.1" xmlns="http://www.w3.org/2000/svg" xmlns:xlink="http://www.w3.org/1999/xlink">
    <!-- Generator: Sketch 48.2 (47327) - http://www.bohemiancoding.com/sketch -->
    <title>PlanckUnits_1</title>
    <desc>Created with Sketch.</desc>
    <defs></defs>
    <g id="Page-1" stroke="none" stroke-width="1" fill="none" fill-rule="evenodd">
        <g id="PlanckUnits_1">
            <path d="M205.839755,41.1229368 L205.839755,61.6822825 L220.113441,61.6822825 C223.692793,61.6240817 226.384541,60.5182822 228.188767,58.364851 C229.905692,56.2696205 230.764142,53.9416217 230.764142,51.3807845 C230.764142,49.2564536 230.414942,47.4668045 229.716532,46.0117834 C228.989021,44.7022644 227.970522,43.6692149 226.661003,42.9126039 C224.682174,41.6612857 222.383275,41.064736 219.764237,41.1229368 L205.839755,41.1229368 Z M197,95.6423058 L197,32 L220.047419,32 C222.550056,32 224.965355,32.2327999 227.293388,32.6984066 C229.621422,33.3095155 231.978521,34.5608149 234.364756,36.4523424 C236.372685,37.8782631 238.002284,39.9152621 239.253602,42.5634005 C240.563121,45.1242377 241.217871,48.1506363 241.217871,51.642687 C241.217871,56.3569554 239.559172,60.6492033 236.241724,64.5195595 C232.836974,68.5936187 227.860876,70.6888177 221.313281,70.8052194 L206.646742,70.8052194 L206.646742,95.6423058 L197,95.6423058 Z M248.355259,84.6424011 C248.355259,88.629159 249.490159,91.4664076 251.759992,93.1542321 C253.913423,94.8129562 256.648822,95.6423058 259.96627,95.6423058 L264.025759,95.6423058 L264.025759,87.0431739 L260.882929,87.0431739 C258.613096,87.0431739 257.478196,86.0101244 257.478196,83.9439944 L257.478196,32 L248.355259,32 L248.355259,84.6424011 Z M295.192155,95.6423058 L295.192155,91.6264675 L295.017554,91.6264675 C294.173641,93.1687899 292.864142,94.3036894 291.089016,95.0312 C289.342991,95.7878109 286.927692,96.1661108 283.843047,96.1661108 C278.779574,96.1079099 274.880176,94.7693106 272.144736,92.1502725 C269.263794,89.5894354 267.823345,86.3156869 267.823345,82.3289291 C267.823345,78.5167737 269.074644,75.3594252 271.57728,72.8567889 C274.079917,70.2959517 277.746515,68.9864523 282.577185,68.9282515 L295.192155,68.9282515 L295.192155,64.1703562 C295.250356,60.1835983 292.151208,58.2484493 285.894617,58.364851 C283.624784,58.364851 281.835135,58.5976508 280.525616,59.0632576 C279.157896,59.6161656 278.081196,60.5473652 277.295485,61.8568842 L270.136817,56.4005823 C273.599767,51.8609163 278.706815,49.6493174 285.458113,49.7657191 C291.161795,49.7075183 295.715943,50.7842177 299.120693,52.9958498 C302.525442,55.2656828 304.256891,59.1650809 304.315092,64.6941612 L304.315092,95.6423058 L295.192155,95.6423058 Z M295.192155,79.7099041 L295.192155,76.436123 L284.279551,76.436123 C278.983274,76.5525247 276.364276,78.3712738 276.422477,81.8924249 C276.422477,83.4347473 277.106326,84.7442467 278.474046,85.8209623 C279.783565,87.0140796 281.951514,87.6106293 284.977958,87.6106293 C288.790113,87.6688302 291.481862,87.2177804 293.053285,86.2574664 C294.479206,85.2971525 295.192155,83.1146536 295.192155,79.7099041 Z M316.100704,95.6423058 L325.223641,95.6423058 L325.223641,68.666349 C325.223641,65.494403 326.082091,63.0791041 327.799016,61.42038 C329.48684,59.7325555 331.640239,58.8886559 334.259277,58.8886559 C336.878315,58.8886559 339.017164,59.7325555 340.675888,61.42038 C342.363713,63.0791041 343.207612,65.494403 343.207612,68.666349 L343.207612,95.6423058 L352.330549,95.6423058 L352.330549,65.5235191 C352.185047,60.3436439 350.569998,56.4151458 347.485353,53.7379069 C344.371608,51.0897685 340.937809,49.7657191 337.183855,49.7657191 C332.324084,49.7657191 328.395586,51.5553682 325.398243,55.1347202 L325.223641,55.1347202 L325.223641,50.3331745 L316.100704,50.3331745 L316.100704,95.6423058 Z M390.742915,82.3289291 C388.443981,85.4135738 385.373933,86.9849731 381.532677,87.0431739 C373.791965,87.188676 369.863467,82.5181283 369.747065,73.0313906 C369.863467,63.486452 373.791965,58.7722542 381.532677,58.8886559 C385.373933,59.0050576 388.443981,60.5910069 390.742915,63.6465512 L397.465079,57.6664443 C395.48625,55.2802097 393.158251,53.3741606 390.481012,51.9482399 C387.803773,50.5514196 384.704625,49.8239199 381.183474,49.7657191 C375.828996,49.7075183 371.129348,51.4971674 367.08439,55.1347202 C362.893929,58.8304739 360.74053,64.795971 360.624128,73.0313906 C360.74053,81.1795089 362.893929,87.072256 367.08439,90.7098088 C371.129348,94.3473616 375.828996,96.1661108 381.183474,96.1661108 C384.704625,96.1079099 387.803773,95.3367603 390.481012,93.8526387 C393.158251,92.426718 395.48625,90.5788689 397.465079,88.309036 L390.742915,82.3289291 Z M403.794389,95.6423058 L412.917326,95.6423058 L412.917326,82.5908315 L420.075994,74.4718543 L432.123509,95.6423058 L443.559917,95.6423058 L425.794198,68.0115928 L441.421047,50.3331745 L430.508443,50.3331745 L413.091927,71.5909268 L412.917326,71.5909268 L412.917326,32 L403.794389,32 L403.794389,95.6423058 Z M444.301975,106.816812 L489,106.816812 L489,102.36447 L444.301975,102.36447 L444.301975,106.816812 Z M197.001031,147.58242 C197.059231,154.275517 199.27083,159.586265 203.635894,163.514822 C207.913656,167.559781 213.238953,169.61133 219.611946,169.66953 C226.10134,169.61133 231.470287,167.559781 235.718949,163.514822 C239.93851,159.586265 242.106459,154.275517 242.222861,147.58242 L242.222861,105.50342 L232.576119,105.50342 L232.576119,146.53481 C232.517918,150.870773 231.295719,154.173622 228.909484,156.443455 C226.465049,158.829689 223.3659,160.022789 219.611946,160.022789 C215.857991,160.022789 212.787943,158.829689 210.401708,156.443455 C207.957273,154.173622 206.705973,150.870773 206.647772,146.53481 L206.647772,105.50342 L197.001031,105.50342 L197.001031,147.58242 Z M253.65927,169.145725 L262.782207,169.145725 L262.782207,142.169769 C262.782207,138.997823 263.640656,136.582524 265.357581,134.9238 C267.045406,133.235975 269.198805,132.392076 271.817843,132.392076 C274.436881,132.392076 276.57573,133.235975 278.234454,134.9238 C279.922278,136.582524 280.766178,138.997823 280.766178,142.169769 L280.766178,169.145725 L289.889115,169.145725 L289.889115,139.026939 C289.743613,133.847064 288.128563,129.918565 285.043919,127.241327 C281.930173,124.593188 278.496375,123.269139 274.742421,123.269139 C269.88265,123.269139 265.954152,125.058788 262.956808,128.63814 L262.782207,128.63814 L262.782207,123.836594 L253.65927,123.836594 L253.65927,169.145725 Z M301.936629,169.145725 L311.059566,169.145725 L311.059566,123.836594 L301.936629,123.836594 L301.936629,169.145725 Z M301.936629,114.626356 L311.059566,114.626356 L311.059566,105.50342 L301.936629,105.50342 L301.936629,114.626356 Z M323.630886,123.836594 L319.091243,123.836594 L319.091243,130.77701 L323.630886,130.77701 L323.630886,157.971219 C323.630886,161.550571 324.678485,164.28597 326.773716,166.177497 C328.810745,168.156326 331.429744,169.145725 334.630791,169.145725 L339.388686,169.145725 L339.388686,160.546594 L335.983954,160.546594 C333.772321,160.604794 332.695622,159.484445 332.753823,157.185512 L332.753823,130.77701 L339.388686,130.77701 L339.388686,123.836594 L332.753823,123.836594 L332.753823,110.043063 L323.630886,110.043063 L323.630886,123.836594 Z M349.29733,155.308544 L342.92437,161.550553 C348.831755,166.963232 355.481102,169.66953 362.872609,169.66953 C368.314388,169.61133 372.781236,168.36003 376.273287,165.915595 C379.794438,163.52936 381.584087,160.139212 381.642288,155.745048 C381.642288,151.991093 380.667439,148.891945 378.71771,146.447509 C376.62248,143.944873 373.217782,142.518974 368.503513,142.169769 L360.995642,141.602313 C358.784009,141.36951 357.24171,140.83116 356.368698,139.987248 C355.408384,139.230637 354.957334,138.343087 355.015535,137.324573 C355.015535,135.724049 355.612084,134.41455 356.805202,133.396035 C357.940118,132.37752 359.933467,131.868271 362.785309,131.868271 C365.287945,131.868271 367.499544,132.23202 369.420172,132.959531 C371.3699,133.774343 373.217749,134.807392 374.963775,136.05871 L380.594678,129.467498 C378.383046,127.54687 375.880447,126.019121 373.086807,124.884204 C371.631786,124.360397 370.074936,123.952997 368.416212,123.661992 C366.757488,123.400089 364.880539,123.269139 362.785309,123.269139 C357.954639,123.269139 353.96794,124.433138 350.825095,126.761172 C347.594948,129.089206 345.950799,132.581204 345.892598,137.237272 C345.950799,141.107628 347.202098,144.119476 349.646534,146.272908 C352.032768,148.48454 355.131917,149.764939 358.944072,150.114144 L366.975749,150.812551 C368.663573,150.870752 370.016722,151.234502 371.035237,151.903811 C372.024652,152.544021 372.519351,153.67892 372.519351,155.308544 C372.519351,157.14187 371.690002,158.56777 370.031278,159.586284 C368.372554,160.604799 366.233705,161.114049 363.614667,161.114049 C357.765482,161.114049 352.993084,159.1789 349.29733,155.308544 Z M384.95972,180.320232 L429.657745,180.320232 L429.657745,175.867889 L384.95972,175.867889 L384.95972,180.320232 Z" id="Planck_-Units_-Copy-2" fill="#000000"></path>
            <g id="Logo" transform="translate(18.000000, 14.000000)">
                <g id="Group" transform="translate(89.500000, 92.500000) rotate(-30.000000) translate(-89.500000, -92.500000) translate(27.545644, 21.360442)">
                    <polygon id="Polygon" fill="#91C2D5" points="123.84135 35.5697791 123.84135 106.698949 61.9076682 142.263535"></polygon>
                    <polygon id="Polygon" fill="#7DBFD9" points="61.9336817 0 123.867363 35.5645851 0 35.5645851"></polygon>
                    <polygon id="Triangle" fill="#2D4752" points="61.9164605 35.5697791 31.0005216 88.9353775 92.8323994 88.9353775"></polygon>
                    <polygon id="Polygon" fill="#116D92" points="61.9336817 142.263535 9.63805336e-14 106.698949 5.68434189e-14 35.5697791"></polygon>
                </g>
            </g>
        </g>
    </g>
</svg>